# xmcd
#
# Track frame offsets:
# 150
# 21835
# 37630
# 57657
# 76045
# 91597
# 110775
# 131340
#
# Disc length: 2013 seconds
#
#
# Revision: 0
# Processed by: cddbd v1.5.2PL0 Copyright (c) Steve Scherf et al.
# Submitted via: FreeRIP 2.96 
#
DISCID=5507db08
DTITLE=손무현 - 손무현
DYEAR=1900
DGENRE=Alt. Rock
TTITLE0=N.E.W.S (Instrumental)
TTITLE1=바다로 간 너는
TTITLE2=처음부터 사랑한 나
TTITLE3=마지막 너를 위해
TTITLE4=잠들어버린 기억
TTITLE5=어둠속에서
TTITLE6=돌아오는 길
TTITLE7=오늘을 위한 시간
EXTD=
EXTT0=
EXTT1=
EXTT2=
EXTT3=
EXTT4=
EXTT5=
EXTT6=
EXTT7=
PLAYORDER=
